<svg xmlns="http://www.w3.org/2000/svg" xmlns:xlink="http://www.w3.org/1999/xlink" width="1920" zoomAndPan="magnify" viewBox="0 0 1440 809.999993" height="1080" preserveAspectRatio="xMidYMid meet" version="1.0"><path fill="#1a171b" d="M 600.269531 560.375 L 600.269531 401.714844 C 600.269531 379.769531 582.554688 361.953125 560.550781 361.953125 C 538.703125 361.953125 520.953125 379.769531 520.953125 401.714844 L 520.953125 560.375 C 520.953125 582.285156 538.703125 600.066406 560.550781 600.066406 C 582.554688 600.066406 600.269531 582.285156 600.269531 560.375 M 386.386719 202.183594 C 364.488281 202.183594 346.683594 219.960938 346.683594 242.011719 L 346.683594 428.417969 C 346.683594 428.417969 348.246094 466.667969 321.75 489.484375 C 285.292969 522.074219 227.300781 520.5625 227.300781 520.5625 C 227.300781 520.5625 169.464844 522.074219 132.988281 489.484375 C 106.386719 466.667969 108.089844 428.417969 108.089844 428.417969 L 108.089844 242.011719 C 108.089844 219.960938 90.25 202.183594 68.300781 202.183594 C 46.261719 202.183594 28.492188 219.960938 28.492188 242.011719 L 28.492188 454.757812 C 28.492188 495.074219 57.230469 548.066406 104.984375 571.347656 C 150.167969 593.414062 188.570312 600.066406 227.300781 600.066406 C 266.203125 600.066406 304.550781 593.414062 349.894531 571.347656 C 397.457031 548.066406 426.089844 495.074219 426.089844 454.757812 L 426.089844 242.011719 C 426.089844 219.960938 408.457031 202.183594 386.386719 202.183594 M 933.765625 491.097656 C 933.765625 422.203125 876.625 396.175781 876.625 396.175781 C 903.085938 377.632812 918.511719 339.402344 917.175781 313.566406 C 912.109375 208.972656 813.011719 203 813.011719 203 L 560.289062 203 C 538.546875 203 520.953125 220.8125 520.953125 242.585938 C 520.953125 264.375 538.546875 282.085938 560.289062 282.085938 L 795.761719 282.085938 C 818.007812 282.085938 835.949219 299.933594 835.949219 322.175781 C 835.949219 344.367188 818.007812 362.355469 795.761719 362.355469 L 707.246094 362.355469 C 685.296875 362.355469 667.613281 380.027344 667.613281 401.941406 C 667.613281 423.957031 685.296875 441.753906 707.246094 441.753906 L 815.023438 441.753906 C 836.75 441.753906 854.414062 459.410156 854.414062 481.148438 C 854.414062 502.972656 836.75 520.5625 815.023438 520.5625 L 706.746094 520.5625 C 684.878906 520.5625 667.042969 538.324219 667.042969 560.289062 C 667.042969 582.148438 684.878906 600.066406 706.746094 600.066406 L 819.484375 600.066406 C 881.5 600.066406 933.765625 556.625 933.765625 491.097656 M 1249.230469 374.941406 C 1237.328125 363.203125 1218.222656 363.691406 1218.222656 363.691406 C 1218.222656 363.691406 1199.238281 363.203125 1187.265625 374.941406 C 1178.539062 383.152344 1179.058594 397.097656 1179.058594 397.097656 L 1179.058594 416.992188 C 1179.058594 416.992188 1178.539062 430.78125 1187.265625 439.042969 C 1199.238281 450.746094 1218.222656 450.105469 1218.222656 450.105469 C 1218.222656 450.105469 1237.328125 450.746094 1249.230469 439.042969 C 1257.941406 430.78125 1257.457031 416.992188 1257.457031 416.992188 L 1257.457031 397.097656 C 1257.457031 397.097656 1257.941406 383.152344 1249.230469 374.941406 M 227.195312 443.871094 C 249.25 443.871094 266.96875 430.660156 266.96875 408.746094 L 266.96875 242.011719 C 266.96875 219.960938 249.25 202.183594 227.195312 202.183594 C 205.261719 202.183594 187.5625 219.960938 187.5625 242.011719 L 187.5625 408.746094 C 187.5625 430.660156 205.261719 443.871094 227.195312 443.871094 M 1311.472656 495.023438 C 1275.171875 527.558594 1217.164062 526.136719 1217.164062 526.136719 C 1217.164062 526.136719 1159.433594 527.558594 1122.851562 495.023438 C 1096.441406 472.3125 1098.179688 434.097656 1098.179688 434.097656 L 1098.179688 378.640625 C 1098.179688 378.640625 1096.441406 340.164062 1122.851562 317.539062 C 1159.433594 285.003906 1217.164062 286.515625 1217.164062 286.515625 C 1217.164062 286.515625 1275.171875 285.003906 1311.472656 317.539062 C 1337.96875 340.164062 1336.289062 378.640625 1336.289062 378.640625 L 1336.289062 434.097656 C 1336.289062 434.097656 1337.96875 472.3125 1311.472656 495.023438 M 1339.445312 235.902344 C 1294.292969 213.800781 1255.910156 207.0625 1217.164062 207.0625 C 1178.535156 207.0625 1140.171875 213.800781 1094.96875 235.902344 C 1047.457031 259.0625 1018.722656 312.003906 1018.722656 352.265625 L 1018.722656 460.433594 C 1018.722656 500.683594 1047.457031 553.535156 1094.96875 576.714844 C 1140.171875 598.796875 1178.535156 605.378906 1217.164062 605.378906 C 1255.910156 605.378906 1294.292969 598.796875 1339.445312 576.714844 C 1386.957031 553.535156 1415.691406 500.683594 1415.691406 460.433594 L 1415.691406 352.265625 C 1415.691406 312.003906 1386.957031 259.0625 1339.445312 235.902344 " fill-opacity="1" fill-rule="nonzero"/></svg>